<svg width="24" height="24" viewBox="0 0 24 24" fill="none" xmlns="http://www.w3.org/2000/svg"><path d="M11.1111 4.88913C11.1111 4.39821 11.5091 4.00024 12 4.00024C12.4909 4.00024 12.8889 4.39821 12.8889 4.88913V19.1114C12.8889 19.6023 12.4909 20.0002 12 20.0002C11.5091 20.0002 11.1111 19.6023 11.1111 19.1114V4.88913Z" fill="#77818C"/><path d="M4.88889 12.8891C4.39797 12.8891 4 12.4912 4 12.0002C4 11.5093 4.39797 11.1114 4.88889 11.1114H19.1111C19.602 11.1114 20 11.5093 20 12.0002C20 12.4912 19.602 12.8891 19.1111 12.8891H4.88889Z" fill="#77818C"/><path fill-rule="evenodd" clip-rule="evenodd" d="M11.1111 4.88913C11.1111 4.39821 11.5091 4.00024 12 4.00024C12.4909 4.00024 12.8889 4.39821 12.8889 4.88913L12.8889 11.1114L19.1111 11.1114C19.602 11.1114 20 11.5093 20 12.0002C20 12.4912 19.602 12.8891 19.1111 12.8891L12.8889 12.8892L12.8889 19.1114C12.8889 19.6023 12.4909 20.0002 12 20.0002C11.5091 20.0002 11.1111 19.6023 11.1111 19.1114L11.1111 12.8892L4.88889 12.8891C4.39797 12.8891 4 12.4912 4 12.0002C4 11.5093 4.39797 11.1114 4.88889 11.1114L11.1111 11.1114L11.1111 4.88913ZM11.0111 11.0114V4.88916C11.0111 4.34301 11.4539 3.90027 12 3.90027C12.5462 3.90027 12.9889 4.34301 12.9889 4.88916V11.0114H19.1111C19.6573 11.0114 20.1 11.4541 20.1 12.0003C20.1 12.5464 19.6573 12.9892 19.1111 12.9892H12.9889V19.1114C12.9889 19.6575 12.5462 20.1003 12 20.1003C11.4539 20.1003 11.0111 19.6575 11.0111 19.1114V12.9892H4.88891C4.34276 12.9892 3.90002 12.5464 3.90002 12.0003C3.90002 11.4541 4.34277 11.0114 4.88891 11.0114H11.0111Z" fill="#77818C"/></svg>